HIERARCHY
ROOT Hips
{
	OFFSET 0.00000 0.00000 0.00000
	CHANNELS 6 Xposition Yposition Zposition Zrotation Yrotation Xrotation 
	JOINT LHipJoint
	{
		OFFSET 0 0 0
		CHANNELS 3 Zrotation Yrotation Xrotation
		JOINT LeftUpLeg
		{
			OFFSET 1.82298 -1.58346 0.87084
			CHANNELS 3 Zrotation Yrotation Xrotation
			JOINT LeftLeg
			{
				OFFSET 2.43790 -6.69809 0.00000
				CHANNELS 3 Zrotation Yrotation Xrotation
				JOINT LeftFoot
				{
					OFFSET 2.59288 -7.12389 0.00000
					CHANNELS 3 Zrotation Yrotation Xrotation
					JOINT LeftToeBase
					{
						OFFSET 0.14552 -0.39981 2.13160
						CHANNELS 3 Zrotation Yrotation Xrotation
						End Site
						{
							OFFSET 0.00000 -0.00000 1.09427
						}
					}
				}
			}
		}
	}
	JOINT RHipJoint
	{
		OFFSET 0 0 0
		CHANNELS 3 Zrotation Yrotation Xrotation
		JOINT RightUpLeg
		{
			OFFSET -1.77229 -1.58346 0.87084
			CHANNELS 3 Zrotation Yrotation Xrotation
			JOINT RightLeg
			{
				OFFSET -2.50703 -6.88801 0.00000
				CHANNELS 3 Zrotation Yrotation Xrotation
				JOINT RightFoot
				{
					OFFSET -2.61620 -7.18796 0.00000
					CHANNELS 3 Zrotation Yrotation Xrotation
					JOINT RightToeBase
					{
						OFFSET -0.15190 -0.41735 2.15974
						CHANNELS 3 Zrotation Yrotation Xrotation
						End Site
						{
							OFFSET -0.00000 -0.00000 1.10919
						}
					}
				}
			}
		}
	}
	JOINT LowerBack
	{
		OFFSET 0 0 0
		CHANNELS 3 Zrotation Yrotation Xrotation
		JOINT Spine
		{
			OFFSET -0.03602 2.12423 -0.30249
			CHANNELS 3 Zrotation Yrotation Xrotation
			JOINT Spine1
			{
				OFFSET 0.02717 2.10043 0.12912
				CHANNELS 3 Zrotation Yrotation Xrotation
				JOINT Neck
				{
					OFFSET 0 0 0
					CHANNELS 3 Zrotation Yrotation Xrotation
					JOINT Neck1
					{
						OFFSET -0.06371 1.88656 0.11602
						CHANNELS 3 Zrotation Yrotation Xrotation
						JOINT Head
						{
							OFFSET 0.08208 1.87759 -0.11505
							CHANNELS 3 Zrotation Yrotation Xrotation
							End Site
							{
								OFFSET 0.03382 1.93090 -0.05483
							}
						}
					}
				}
				JOINT LeftShoulder
				{
					OFFSET 0 0 0
					CHANNELS 3 Zrotation Yrotation Xrotation
					JOINT LeftArm
					{
						OFFSET 3.30903 1.40357 0.20156
						CHANNELS 3 Zrotation Yrotation Xrotation
						JOINT LeftForeArm
						{
							OFFSET 5.43301 -0.00000 0.00000
							CHANNELS 3 Zrotation Yrotation Xrotation
							JOINT LeftHand
							{
								OFFSET 3.15936 -0.00000 0.00000
								CHANNELS 3 Zrotation Yrotation Xrotation
								JOINT LeftFingerBase
								{
									OFFSET 0 0 0
									CHANNELS 3 Zrotation Yrotation Xrotation
									JOINT LeftHandIndex1
									{
										OFFSET 0.71283 -0.00000 0.00000
										CHANNELS 3 Zrotation Yrotation Xrotation
										End Site
										{
											OFFSET 0.57470 -0.00000 0.00000
										}
									}
								}
								JOINT LThumb
								{
									OFFSET 0 0 0
									CHANNELS 3 Zrotation Yrotation Xrotation
									End Site
									{
										OFFSET 0.58347 -0.00000 0.58347
									}
								}
							}
						}
					}
				}
				JOINT RightShoulder
				{
					OFFSET 0 0 0
					CHANNELS 3 Zrotation Yrotation Xrotation
					JOINT RightArm
					{
						OFFSET -3.12947 1.60037 -0.00464
						CHANNELS 3 Zrotation Yrotation Xrotation
						JOINT RightForeArm
						{
							OFFSET -5.34194 -0.00000 0.00000
							CHANNELS 3 Zrotation Yrotation Xrotation
							JOINT RightHand
							{
								OFFSET -3.19351 -0.00000 0.00000
								CHANNELS 3 Zrotation Yrotation Xrotation
								JOINT RightFingerBase
								{
									OFFSET 0 0 0
									CHANNELS 3 Zrotation Yrotation Xrotation
									JOINT RightHandIndex1
									{
										OFFSET -0.74386 -0.00000 0.00000
										CHANNELS 3 Zrotation Yrotation Xrotation
										End Site
										{
											OFFSET -0.59972 -0.00000 0.00000
										}
									}
								}
								JOINT RThumb
								{
									OFFSET 0 0 0
									CHANNELS 3 Zrotation Yrotation Xrotation
									End Site
									{
										OFFSET -0.60888 -0.00000 0.60888
									}
								}
							}
						}
					}
				}
			}
		}
	}
}
MOTION
Frames: 7
Frame Time: .0083333
-5.9654 10.9216 30.8767 -142.9820 80.8181 -136.1700 0.0000 0.0000 0.0000 17.9226 11.2406 -71.3134 24.3650 19.5369 102.8579 3.6587 -11.7365 -34.6505 1.9411 -8.7423 -24.9924 0.0000 0.0000 0.0000 -5.0216 -16.8609 -57.5259 -24.0801 -19.5961 102.0069 -4.1227 1.6863 -38.1592 -4.0733 12.2573 -36.6485 5.0595 6.1768 21.1960 0.1730 9.6074 -2.5695 -5.7242 3.9982 -13.9846 3.7290 12.8871 -1.5603 -3.4370 17.4212 6.7817 -1.0748 8.6691 3.1414 0.0000 0.0000 0.0000 -67.2370 -18.0563 11.3864 128.4466 -53.6031 -92.5804 -0.0000 0.0000 -38.5295 33.3435 16.7790 10.7548 -7.1250 0.0000 -0.0000 5.4839 49.7470 0.6435 0.0000 0.0000 0.0000 63.2945 32.0438 79.5366 -122.7354 55.5358 -87.9248 0.0000 0.0000 7.4658 -20.5729 -27.0658 9.6916 7.1250 -0.0000 -0.0000 10.8454 -58.2750 -3.5490
-5.9722 10.9433 30.8625 -142.7540 80.7404 -135.8510 0.0000 0.0000 0.0000 17.9094 11.0127 -71.3382 24.3272 19.5450 102.7446 3.6333 -11.6810 -34.5249 1.8450 -8.5355 -24.3528 0.0000 0.0000 0.0000 -4.8936 -16.8108 -57.5207 -23.9770 -19.6165 101.6998 -4.0861 1.6259 -37.9988 -4.0908 12.2803 -36.7310 5.0743 6.1937 21.3509 0.2070 9.6492 -2.5837 -5.7301 4.0087 -14.0915 3.7778 12.8428 -1.5839 -3.4982 17.3575 6.6951 -1.1054 8.6365 3.1249 0.0000 -0.0000 0.0000 -67.2983 -18.1525 11.5824 128.3144 -53.6531 -92.4739 -0.0000 0.0000 -38.4643 32.9430 16.6708 10.5306 -7.1250 0.0000 -0.0000 5.0858 49.5502 0.5719 0.0000 -0.0000 0.0000 63.1149 31.8437 79.2513 -122.6166 55.5714 -87.8268 0.0000 0.0000 7.3942 -20.4894 -27.0206 9.6349 7.1250 -0.0000 -0.0000 10.9114 -58.2109 -3.5540
-5.9786 10.9676 30.8460 -141.9760 80.6252 -134.9920 0.0000 0.0000 0.0000 17.9678 10.8648 -71.3449 24.2879 19.5534 102.6272 3.6322 -11.4333 -34.5199 1.8418 -8.5284 -24.3310 0.0000 0.0000 0.0000 -4.6773 -16.6295 -57.4556 -23.8571 -19.6395 101.3429 -4.0525 1.6405 -37.8335 -4.0667 12.2486 -36.6173 5.2704 6.1756 21.4671 0.2132 9.6847 -2.5736 -5.8549 4.0075 -14.1123 3.8097 12.8125 -1.5607 -3.5157 17.3071 6.5408 -1.1257 8.6123 3.0706 0.0000 0.0000 0.0000 -67.2498 -18.2956 11.7134 128.1519 -53.7142 -92.3430 -0.0000 0.0000 -38.4039 33.1622 16.6153 10.5836 -7.1250 0.0000 -0.0000 5.3113 49.5253 0.5941 0.0000 0.0000 0.0000 63.0208 31.7142 78.9932 -122.4130 55.6319 -87.6588 0.0000 0.0000 7.3280 -20.6448 -26.9877 9.7024 7.1250 -0.0000 -0.0000 10.7264 -58.2124 -3.4933
-5.9848 10.9937 30.8274 -141.2440 80.5007 -134.1690 0.0000 0.0000 0.0000 18.0182 10.7000 -71.3563 24.2432 19.5627 102.4938 3.6179 -11.2449 -34.4504 1.8278 -8.4978 -24.2365 0.0000 0.0000 0.0000 -4.4407 -16.4829 -57.3997 -23.7285 -19.6634 100.9604 -4.0039 1.3895 -37.6608 -4.1069 12.3014 -36.8066 5.3735 6.1649 21.5735 0.2676 9.7117 -2.5449 -5.8703 4.0130 -14.1308 3.8868 12.7924 -1.5487 -3.6710 17.2768 6.3478 -1.1938 8.5953 3.0257 0.0000 0.0000 0.0000 -67.2605 -18.5126 11.8240 128.0276 -53.7607 -92.2427 -0.0000 0.0000 -38.4097 32.8987 16.5525 10.4423 -7.1250 0.0000 -0.0000 5.0496 49.4061 0.5499 0.0000 0.0000 0.0000 62.8387 31.6081 78.6952 -122.2197 55.6888 -87.4992 0.0000 0.0000 7.3359 -20.4267 -26.8603 9.5516 7.1250 -0.0000 -0.0000 10.8941 -58.0356 -3.5022
-5.9914 11.0243 30.8052 -140.7020 80.4096 -133.5170 0.0000 0.0000 0.0000 18.0158 10.5196 -71.3585 24.1922 19.5733 102.3414 3.5921 -11.3577 -34.3212 1.7543 -8.3344 -23.7343 0.0000 0.0000 0.0000 -4.2721 -16.2867 -57.3212 -23.5837 -19.6893 100.5303 -3.9543 1.2725 -37.4499 -4.1134 12.3097 -36.8367 5.4379 6.0929 21.6508 0.3422 9.6482 -2.5159 -5.8114 3.9814 -14.1529 3.7658 12.8572 -1.5322 -3.6462 17.3580 6.2225 -1.1708 8.6341 2.9680 0.0000 -0.0000 0.0000 -67.3283 -18.5802 11.7628 127.9531 -53.7884 -92.1826 -0.0000 0.0000 -38.3919 32.9967 16.7606 10.6057 -7.1250 0.0000 -0.0000 5.1336 49.6633 0.5916 0.0000 -0.0000 0.0000 62.6749 31.5885 78.6230 -122.0338 55.7432 -87.3456 0.0000 0.0000 7.2491 -20.2810 -26.7957 9.4580 7.1250 -0.0000 -0.0000 11.0166 -57.9384 -3.5164
-5.9975 11.0547 30.7829 -140.0220 80.2692 -132.7020 0.0000 0.0000 0.0000 18.0302 10.3696 -71.4233 24.1436 19.5833 102.1964 3.5808 -11.2010 -34.2659 1.7456 -8.3148 -23.6745 0.0000 0.0000 0.0000 -4.0320 -16.1037 -57.2735 -23.4335 -19.7150 100.0848 -3.9026 1.1651 -37.2247 -4.1224 12.3216 -36.8793 5.4803 6.0153 21.6733 0.4533 9.5727 -2.4666 -5.6869 3.9524 -14.1310 3.6977 12.9313 -1.5871 -3.7146 17.4554 6.1186 -1.1768 8.6783 2.9469 0.0000 0.0000 0.0000 -67.4120 -18.6737 11.6892 127.8355 -53.8320 -92.0877 -0.0000 0.0000 -38.4374 32.8931 16.8408 10.6127 -7.1250 0.0000 -0.0000 5.0229 49.7371 0.5880 0.0000 0.0000 0.0000 62.5013 31.6807 78.5578 -121.7380 55.8287 -87.1010 0.0000 0.0000 7.2059 -20.5417 -27.0302 9.6643 7.1250 -0.0000 -0.0000 10.8601 -58.2322 -3.5426
-6.0033 11.0898 30.7569 -139.3680 80.1371 -131.8990 0.0000 0.0000 0.0000 18.0421 10.1791 -71.4564 24.0847 19.5952 102.0207 3.5566 -11.2177 -34.1446 1.6815 -8.1686 -23.2275 0.0000 0.0000 0.0000 -3.8033 -15.9015 -57.1994 -23.2637 -19.7427 99.5820 -3.8525 1.0734 -37.0022 -4.1266 12.3270 -36.8987 5.6221 5.9889 21.7576 0.4711 9.5846 -2.4708 -5.7593 3.9444 -14.1642 3.6731 12.9250 -1.5629 -3.6666 17.4346 5.9654 -1.1677 8.6694 2.8815 -0.0000 0.0000 0.0000 -67.3319 -18.8434 11.8974 127.7608 -53.8596 -92.0274 -0.0000 0.0000 -38.7100 32.9696 16.9117 10.6856 -7.1250 0.0000 -0.0000 5.0951 49.8324 0.6084 -0.0000 0.0000 0.0000 62.3167 31.5674 78.2896 -121.4458 55.9122 -86.8591 0.0000 0.0000 7.3227 -20.4538 -26.9455 9.5927 7.1250 -0.0000 -0.0000 10.9100 -58.1274 -3.5316
